<mxfile host="app.diagrams.net" modified="2024-03-18T01:27:58.931Z" agent="Mozilla/5.0 (Macintosh; Intel Mac OS X 10_15_7) AppleWebKit/537.36 (KHTML, like Gecko) Chrome/122.0.0.0 Safari/537.36" etag="wk5aQ7aLgl6h_SVeYvky" version="23.1.2" type="device">
  <diagram name="ページ1" id="_p8y2ZMvJbF9bzFV4q6h">
    <mxGraphModel dx="1242" dy="785" grid="1" gridSize="10" guides="1" tooltips="1" connect="1" arrows="1" fold="1" page="1" pageScale="1" pageWidth="827" pageHeight="1169" math="0" shadow="0">
      <root>
        <mxCell id="0" />
        <mxCell id="1" parent="0" />
        <mxCell id="p1uvAuJWru4tgl7bkKN8-23" value="" style="rounded=0;whiteSpace=wrap;html=1;fillColor=#dae8fc;strokeColor=none;" parent="1" vertex="1">
          <mxGeometry x="40" width="620" height="60" as="geometry" />
        </mxCell>
        <mxCell id="p1uvAuJWru4tgl7bkKN8-22" value="" style="rounded=0;whiteSpace=wrap;html=1;fillColor=#d5e8d4;strokeColor=none;" parent="1" vertex="1">
          <mxGeometry x="40" y="60" width="620" height="60" as="geometry" />
        </mxCell>
        <mxCell id="p1uvAuJWru4tgl7bkKN8-10" style="edgeStyle=orthogonalEdgeStyle;rounded=0;orthogonalLoop=1;jettySize=auto;html=1;entryX=0;entryY=0.5;entryDx=0;entryDy=0;" parent="1" source="p1uvAuJWru4tgl7bkKN8-1" target="p1uvAuJWru4tgl7bkKN8-6" edge="1">
          <mxGeometry relative="1" as="geometry" />
        </mxCell>
        <mxCell id="p1uvAuJWru4tgl7bkKN8-15" style="edgeStyle=orthogonalEdgeStyle;rounded=0;orthogonalLoop=1;jettySize=auto;html=1;entryX=0;entryY=0.5;entryDx=0;entryDy=0;curved=1;" parent="1" source="p1uvAuJWru4tgl7bkKN8-1" target="p1uvAuJWru4tgl7bkKN8-3" edge="1">
          <mxGeometry relative="1" as="geometry" />
        </mxCell>
        <mxCell id="p1uvAuJWru4tgl7bkKN8-1" value="" style="ellipse;whiteSpace=wrap;html=1;aspect=fixed;" parent="1" vertex="1">
          <mxGeometry x="180" y="80" width="20" height="20" as="geometry" />
        </mxCell>
        <mxCell id="p1uvAuJWru4tgl7bkKN8-16" style="edgeStyle=orthogonalEdgeStyle;rounded=0;orthogonalLoop=1;jettySize=auto;html=1;entryX=0;entryY=0.5;entryDx=0;entryDy=0;curved=1;" parent="1" source="p1uvAuJWru4tgl7bkKN8-3" target="p1uvAuJWru4tgl7bkKN8-6" edge="1">
          <mxGeometry relative="1" as="geometry" />
        </mxCell>
        <mxCell id="p1uvAuJWru4tgl7bkKN8-3" value="" style="ellipse;whiteSpace=wrap;html=1;aspect=fixed;" parent="1" vertex="1">
          <mxGeometry x="240" y="20" width="20" height="20" as="geometry" />
        </mxCell>
        <mxCell id="p1uvAuJWru4tgl7bkKN8-5" value="変更行数&lt;br&gt;+3,000&lt;br&gt;-1,000" style="text;html=1;strokeColor=none;fillColor=none;align=center;verticalAlign=middle;whiteSpace=wrap;rounded=0;" parent="1" vertex="1">
          <mxGeometry x="272.5" y="15" width="65" height="50" as="geometry" />
        </mxCell>
        <mxCell id="p1uvAuJWru4tgl7bkKN8-6" value="" style="ellipse;whiteSpace=wrap;html=1;aspect=fixed;" parent="1" vertex="1">
          <mxGeometry x="300" y="80" width="20" height="20" as="geometry" />
        </mxCell>
        <mxCell id="p1uvAuJWru4tgl7bkKN8-11" style="edgeStyle=orthogonalEdgeStyle;rounded=0;orthogonalLoop=1;jettySize=auto;html=1;" parent="1" source="p1uvAuJWru4tgl7bkKN8-7" target="p1uvAuJWru4tgl7bkKN8-8" edge="1">
          <mxGeometry relative="1" as="geometry" />
        </mxCell>
        <mxCell id="p1uvAuJWru4tgl7bkKN8-17" style="edgeStyle=orthogonalEdgeStyle;rounded=0;orthogonalLoop=1;jettySize=auto;html=1;entryX=0;entryY=0.5;entryDx=0;entryDy=0;curved=1;" parent="1" source="p1uvAuJWru4tgl7bkKN8-7" target="p1uvAuJWru4tgl7bkKN8-9" edge="1">
          <mxGeometry relative="1" as="geometry" />
        </mxCell>
        <mxCell id="p1uvAuJWru4tgl7bkKN8-7" value="" style="ellipse;whiteSpace=wrap;html=1;aspect=fixed;" parent="1" vertex="1">
          <mxGeometry x="370" y="80" width="20" height="20" as="geometry" />
        </mxCell>
        <mxCell id="p1uvAuJWru4tgl7bkKN8-8" value="" style="ellipse;whiteSpace=wrap;html=1;aspect=fixed;" parent="1" vertex="1">
          <mxGeometry x="580" y="80" width="20" height="20" as="geometry" />
        </mxCell>
        <mxCell id="p1uvAuJWru4tgl7bkKN8-19" style="edgeStyle=orthogonalEdgeStyle;rounded=0;orthogonalLoop=1;jettySize=auto;html=1;" parent="1" source="p1uvAuJWru4tgl7bkKN8-9" target="p1uvAuJWru4tgl7bkKN8-13" edge="1">
          <mxGeometry relative="1" as="geometry" />
        </mxCell>
        <mxCell id="p1uvAuJWru4tgl7bkKN8-9" value="" style="ellipse;whiteSpace=wrap;html=1;aspect=fixed;" parent="1" vertex="1">
          <mxGeometry x="430" y="25" width="20" height="20" as="geometry" />
        </mxCell>
        <mxCell id="p1uvAuJWru4tgl7bkKN8-21" style="edgeStyle=orthogonalEdgeStyle;rounded=0;orthogonalLoop=1;jettySize=auto;html=1;entryX=0;entryY=0.5;entryDx=0;entryDy=0;curved=1;" parent="1" source="p1uvAuJWru4tgl7bkKN8-12" target="p1uvAuJWru4tgl7bkKN8-8" edge="1">
          <mxGeometry relative="1" as="geometry" />
        </mxCell>
        <mxCell id="p1uvAuJWru4tgl7bkKN8-12" value="" style="ellipse;whiteSpace=wrap;html=1;aspect=fixed;" parent="1" vertex="1">
          <mxGeometry x="520" y="25" width="20" height="20" as="geometry" />
        </mxCell>
        <mxCell id="p1uvAuJWru4tgl7bkKN8-20" style="edgeStyle=orthogonalEdgeStyle;rounded=0;orthogonalLoop=1;jettySize=auto;html=1;" parent="1" source="p1uvAuJWru4tgl7bkKN8-13" target="p1uvAuJWru4tgl7bkKN8-12" edge="1">
          <mxGeometry relative="1" as="geometry" />
        </mxCell>
        <mxCell id="p1uvAuJWru4tgl7bkKN8-13" value="" style="ellipse;whiteSpace=wrap;html=1;aspect=fixed;" parent="1" vertex="1">
          <mxGeometry x="474" y="25" width="20" height="20" as="geometry" />
        </mxCell>
        <mxCell id="p1uvAuJWru4tgl7bkKN8-14" value="変更行数&lt;br&gt;+10,000&lt;br&gt;-2,000" style="text;html=1;strokeColor=none;fillColor=none;align=center;verticalAlign=middle;whiteSpace=wrap;rounded=0;" parent="1" vertex="1">
          <mxGeometry x="555" y="15" width="60" height="50" as="geometry" />
        </mxCell>
        <mxCell id="p1uvAuJWru4tgl7bkKN8-83" value="&lt;font style=&quot;font-size: 24px;&quot;&gt;🙅‍♂️&lt;/font&gt;" style="text;html=1;strokeColor=none;fillColor=none;align=center;verticalAlign=middle;whiteSpace=wrap;rounded=0;" parent="1" vertex="1">
          <mxGeometry y="45" width="30" height="30" as="geometry" />
        </mxCell>
        <mxCell id="p1uvAuJWru4tgl7bkKN8-86" value="" style="group" parent="1" vertex="1" connectable="0">
          <mxGeometry x="50" y="10" width="120" height="45" as="geometry" />
        </mxCell>
        <mxCell id="p1uvAuJWru4tgl7bkKN8-4" value="開発用ブランチ" style="text;html=1;strokeColor=none;fillColor=none;align=center;verticalAlign=middle;whiteSpace=wrap;rounded=0;" parent="p1uvAuJWru4tgl7bkKN8-86" vertex="1">
          <mxGeometry x="9.5" width="101" height="20" as="geometry" />
        </mxCell>
        <mxCell id="p1uvAuJWru4tgl7bkKN8-85" value="&lt;div style=&quot;font-size: 10px;&quot;&gt;特定の開発者のみが&lt;span style=&quot;background-color: initial;&quot;&gt;見る&lt;/span&gt;&lt;/div&gt;" style="text;html=1;strokeColor=none;fillColor=none;align=center;verticalAlign=middle;whiteSpace=wrap;rounded=0;fontSize=10;fontStyle=1" parent="p1uvAuJWru4tgl7bkKN8-86" vertex="1">
          <mxGeometry y="20" width="120" height="25" as="geometry" />
        </mxCell>
        <mxCell id="p1uvAuJWru4tgl7bkKN8-88" value="" style="group" parent="1" vertex="1" connectable="0">
          <mxGeometry x="54.5" y="65" width="111" height="45" as="geometry" />
        </mxCell>
        <mxCell id="p1uvAuJWru4tgl7bkKN8-2" value="メインブランチ" style="text;html=1;strokeColor=none;fillColor=none;align=center;verticalAlign=middle;whiteSpace=wrap;rounded=0;" parent="p1uvAuJWru4tgl7bkKN8-88" vertex="1">
          <mxGeometry width="111" height="22.5" as="geometry" />
        </mxCell>
        <mxCell id="p1uvAuJWru4tgl7bkKN8-87" value="&lt;font style=&quot;font-size: 10px;&quot;&gt;&lt;b&gt;全開発者が見る&lt;/b&gt;&lt;/font&gt;" style="text;html=1;strokeColor=none;fillColor=none;align=center;verticalAlign=middle;whiteSpace=wrap;rounded=0;" parent="p1uvAuJWru4tgl7bkKN8-88" vertex="1">
          <mxGeometry y="22.5" width="111" height="22.5" as="geometry" />
        </mxCell>
      </root>
    </mxGraphModel>
  </diagram>
</mxfile>
